# xmcd CD database file
# Copyright (C) 1993-1998 Ti Kan
#
# Track frame offsets:
# 	150
# 	19145
# 	33512
# 	47985
# 	64565
# 	70142
# 	79817
# 	93495
# 	105002
# 	115955
# 	131195
# 	136500
# 	150002
# 	156337
# 	166302
# 	173507
# 	178265
# 	184932
# 	209545
# 	243780
# 	264450
#
# Disc length: 3650 seconds
#
# Revision: 2
# Processed by: cddbd v1.4b41PL1 Copyright (c) Steve Scherf et al.
# Submitted via: DiscPlay 3.4.1
#
DISCID=120e4015
DTITLE=Montserrat Caball - Enrique Granados
DYEAR=1900
DGENRE=
TTITLE0=Desc Brase El Pensamiento De Mi Secreto Cuidado
TTITLE1=Ma Anica Era
TTITLE2=Llorad, Coraz N, Que Teneis Raz N
TTITLE3=Mira Que Soy Ni A, Amor, D Jame!
TTITLE4=No Lloreis, Ojuelos
TTITLE5=Iban Al Pinar
TTITLE6=Gracia M A
TTITLE7=La Maja Dolorosa N  1
TTITLE8=La Maja Dolorosa N  2
TTITLE9=La Maja Dolorosa N  3
TTITLE10=El Tra La La Y El Punteado
TTITLE11=El Mirar De La Maja
TTITLE12=Callejeo
TTITLE13=Amor Y Odio
TTITLE14=El Majo Discreto
TTITLE15=El Majo T Mido
TTITLE16=La Maja De Goya
TTITLE17=Elegia Eterna
TTITLE18=Quejas, O La Maja Y El Ruise Or
TTITLE19=Can   D'amor
TTITLE20=L'ocell Profeta
EXTD=
EXTT0=
EXTT1=
EXTT2=
EXTT3=
EXTT4=
EXTT5=
EXTT6=
EXTT7=
EXTT8=
EXTT9=
EXTT10=
EXTT11=
EXTT12=
EXTT13=
EXTT14=
EXTT15=
EXTT16=
EXTT17=
EXTT18=
EXTT19=
EXTT20=
PLAYORDER=
